<?xml version="1.0" encoding="UTF-8" standalone="no"?>
<!-- Created with Inkscape (http://www.inkscape.org/) -->

<svg
   width="1920"
   height="1080"
   viewBox="0 0 1920 1080"
   version="1.1"
   id="farma_1"
   inkscape:version="1.1.2 (0a00cf5339, 2022-02-04)"
   sodipodi:docname="farma_1.svg"
   xmlns:inkscape="http://www.inkscape.org/namespaces/inkscape"
   xmlns:sodipodi="http://sodipodi.sourceforge.net/DTD/sodipodi-0.dtd"
   xmlns="http://www.w3.org/2000/svg"
   xmlns:svg="http://www.w3.org/2000/svg">
  <sodipodi:namedview
     id="namedview7"
     pagecolor="#ffffff"
     bordercolor="#666666"
     borderopacity="1.0"
     inkscape:pageshadow="2"
     inkscape:pageopacity="0.0"
     inkscape:pagecheckerboard="0"
     inkscape:document-units="px"
     showgrid="false"
     inkscape:zoom="0.49276504"
     inkscape:cx="920.31691"
     inkscape:cy="492.12095"
     inkscape:window-width="1846"
     inkscape:window-height="1016"
     inkscape:window-x="74"
     inkscape:window-y="27"
     inkscape:window-maximized="1"
     inkscape:current-layer="layer1" />
  <defs
     id="defs2">
    <rect
       x="844.77584"
       y="19.63507"
       width="589.80816"
       height="82.200358"
       id="rect4190" />
  </defs>
  <g
     inkscape:label="Layer 1"
     inkscape:groupmode="layer"
     id="layer1">
    <rect
       id="rl_01_06"
       width="32"
       height="32"
       x="776.32343"
       y="421.24429"
       transform="rotate(-6.13)"
       style="fill:#cccccc;stroke-width:4" />
    <rect
       id="rl_01_05"
       width="32"
       height="32"
       x="706.93323"
       y="459.99652"
       transform="rotate(-9.06)"
       style="fill:#cccccc;stroke-width:4" />
    <rect
       id="rl_01_04"
       width="32"
       height="32"
       x="635.40668"
       y="495.2648"
       transform="rotate(-12)"
       style="fill:#cccccc;stroke-width:4" />
    <rect
       id="rl_01_03"
       width="32"
       height="32"
       x="562.41693"
       y="526.71686"
       transform="rotate(-14.93)"
       style="fill:#cccccc;stroke-width:4" />
    <rect
       id="rl_01_02"
       width="32"
       height="32"
       x="490.43201"
       y="553.10687"
       transform="rotate(-17.86)"
       style="fill:#cccccc;stroke-width:4" />
    <rect
       id="rl_01_01"
       width="32"
       height="32"
       x="416.28433"
       y="577.85864"
       transform="rotate(-20.8)"
       style="fill:#cccccc;stroke-width:4" />
    <rect
       id="rl_02_07"
       width="32"
       height="32"
       x="808.10724"
       y="315.89108"
       transform="rotate(-3)"
       style="fill:#cccccc;stroke-width:4" />
    <rect
       id="rl_02_06"
       width="32"
       height="32"
       x="744.91473"
       y="361.85641"
       transform="rotate(-6)"
       style="fill:#cccccc;stroke-width:4" />
    <rect
       id="rl_02_05"
       width="32"
       height="32"
       x="679.46667"
       y="402.75998"
       transform="rotate(-9)"
       style="fill:#cccccc;stroke-width:4" />
    <rect
       id="rl_02_04"
       width="32"
       height="32"
       x="610.26776"
       y="438.09998"
       transform="rotate(-12)"
       style="fill:#cccccc;stroke-width:4" />
    <rect
       id="rl_02_03"
       width="32"
       height="32"
       x="541.19678"
       y="470.49118"
       transform="rotate(-15)"
       style="fill:#cccccc;stroke-width:4" />
    <rect
       id="rl_02_02"
       width="32"
       height="32"
       x="473.57407"
       y="496.3382"
       transform="rotate(-18)"
       style="fill:#cccccc;stroke-width:4" />
    <rect
       id="rl_02_01"
       width="32"
       height="32"
       x="406.61624"
       y="519.79224"
       transform="rotate(-21)"
       style="fill:#cccccc;stroke-width:4" />
    <rect
       id="rl_03_08"
       width="32"
       height="32"
       x="800.00275"
       y="286.92795"
       transform="rotate(-5.11)"
       style="fill:#cccccc;stroke-width:4" />
    <rect
       id="rl_03_07"
       width="32"
       height="32"
       x="746.25366"
       y="318.6098"
       transform="rotate(-7.41)"
       style="fill:#cccccc;stroke-width:4" />
    <rect
       id="rl_03_06"
       width="32"
       height="32"
       x="691.51825"
       y="347.98569"
       transform="rotate(-9.7)"
       style="fill:#cccccc;stroke-width:4" />
    <rect
       id="rl_03_05"
       width="32"
       height="32"
       x="635.40668"
       y="375.26474"
       transform="rotate(-12)"
       style="fill:#cccccc;stroke-width:4" />
    <rect
       id="rl_03_04"
       width="32"
       height="32"
       x="578.49591"
       y="400.16611"
       transform="rotate(-14.29)"
       style="fill:#cccccc;stroke-width:4" />
    <rect
       id="rl_03_03"
       width="32"
       height="32"
       x="520.63544"
       y="422.77374"
       transform="rotate(-16.58)"
       style="fill:#cccccc;stroke-width:4" />
    <rect
       id="rl_03_02"
       width="32"
       height="32"
       x="461.66013"
       y="443.1347"
       transform="rotate(-18.88)"
       style="fill:#cccccc;stroke-width:4" />
    <rect
       id="rl_03_01"
       width="32"
       height="32"
       x="402.1763"
       y="461.03943"
       transform="rotate(-21.17)"
       style="fill:#cccccc;stroke-width:4" />
    <rect
       id="rl_04_09"
       width="32"
       height="32"
       x="829.78156"
       y="212.75682"
       transform="rotate(-3.4985277)"
       style="fill:#cccccc;stroke-width:4" />
    <rect
       id="rl_04_08"
       width="32"
       height="32"
       x="779.62567"
       y="246.54723"
       transform="rotate(-5.8385277)"
       style="fill:#cccccc;stroke-width:4" />
    <rect
       id="rl_04_07"
       width="32"
       height="32"
       x="724.38635"
       y="277.7829"
       transform="rotate(-8.1685277)"
       style="fill:#cccccc;stroke-width:4" />
    <rect
       id="rl_04_06"
       width="32"
       height="32"
       x="667.92322"
       y="306.74792"
       transform="rotate(-10.498528)"
       style="fill:#cccccc;stroke-width:4" />
    <rect
       id="rl_04_05"
       width="32"
       height="32"
       x="610.08002"
       y="333.50235"
       transform="rotate(-12.838528)"
       style="fill:#cccccc;stroke-width:4" />
    <rect
       id="rl_04_04"
       width="32"
       height="32"
       x="551.44586"
       y="357.77377"
       transform="rotate(-15.168528)"
       style="fill:#cccccc;stroke-width:4" />
    <rect
       id="rl_04_03"
       width="32"
       height="32"
       x="491.87372"
       y="379.64133"
       transform="rotate(-17.498528)"
       style="fill:#cccccc;stroke-width:4" />
    <rect
       id="rl_04_02"
       width="32"
       height="32"
       x="431.20111"
       y="399.14728"
       transform="rotate(-19.838528)"
       style="fill:#cccccc;stroke-width:4" />
    <rect
       id="rl_04_01"
       width="32"
       height="32"
       x="370.04593"
       y="416.09183"
       transform="rotate(-22.168528)"
       style="fill:#cccccc;stroke-width:4" />
    <rect
       id="rl_05_10"
       width="32"
       height="32"
       x="823.63336"
       y="199.97676"
       transform="rotate(-5.9783678)"
       style="fill:#cccccc;stroke-width:4" />
    <rect
       id="rl_05_09"
       width="32"
       height="32"
       x="774.48022"
       y="226.49106"
       transform="rotate(-7.8683678)"
       style="fill:#cccccc;stroke-width:4" />
    <rect
       id="rl_05_08"
       width="32"
       height="32"
       x="720.29053"
       y="250.79698"
       transform="rotate(-9.7683678)"
       style="fill:#cccccc;stroke-width:4" />
    <rect
       id="rl_05_07"
       width="32"
       height="32"
       x="669.55493"
       y="273.61356"
       transform="rotate(-11.658367)"
       style="fill:#cccccc;stroke-width:4" />
    <rect
       id="rl_05_06"
       width="32"
       height="32"
       x="615.90942"
       y="294.30997"
       transform="rotate(-13.558367)"
       style="fill:#cccccc;stroke-width:4" />
    <rect
       id="rl_05_05"
       width="32"
       height="32"
       x="561.90894"
       y="312.92169"
       transform="rotate(-15.448367)"
       style="fill:#cccccc;stroke-width:4" />
    <rect
       id="rl_05_04"
       width="32"
       height="32"
       x="509.29916"
       y="330.09436"
       transform="rotate(-17.338367)"
       style="fill:#cccccc;stroke-width:4" />
    <rect
       id="rl_05_03"
       width="32"
       height="32"
       x="453.41461"
       y="346.7774"
       transform="rotate(-19.238367)"
       style="fill:#cccccc;stroke-width:4" />
    <rect
       id="rl_05_02"
       width="32"
       height="32"
       x="400.5863"
       y="358.13385"
       transform="rotate(-21.128367)"
       style="fill:#cccccc;stroke-width:4" />
    <rect
       id="rl_05_01"
       width="32"
       height="32"
       x="346.75049"
       y="374.01212"
       transform="rotate(-23.028367)"
       style="fill:#cccccc;stroke-width:4" />
    <rect
       id="rr_01_01"
       width="32"
       height="32"
       x="-1118.343"
       y="209.28261"
       transform="matrix(-0.99428217,-0.10678469,-0.10678469,0.99428217,0,0)"
       style="fill:#cccccc;stroke-width:4" />
    <rect
       id="rr_01_02"
       width="32"
       height="32"
       x="-1174.4218"
       y="151.46442"
       transform="matrix(-0.98752398,-0.15746868,-0.15746868,0.98752398,0,0)"
       style="fill:#cccccc;stroke-width:4" />
    <rect
       id="rr_01_03"
       width="32"
       height="32"
       x="-1227.6476"
       y="90.643784"
       transform="matrix(-0.9781476,-0.20791169,-0.20791169,0.9781476,0,0)"
       style="fill:#cccccc;stroke-width:4" />
    <rect
       id="rr_01_04"
       width="32"
       height="32"
       x="-1277.5189"
       y="27.39327"
       transform="matrix(-0.96624131,-0.25763875,-0.25763875,0.96624131,0,0)"
       style="fill:#cccccc;stroke-width:4" />
    <rect
       id="rr_01_05"
       width="32"
       height="32"
       x="-1321.5756"
       y="-39.613945"
       transform="matrix(-0.95180875,-0.3066922,-0.3066922,0.95180875,0,0)"
       style="fill:#cccccc;stroke-width:4" />
    <rect
       id="rr_01_06"
       width="32"
       height="32"
       x="-1362.9373"
       y="-107.02023"
       transform="matrix(-0.93482568,-0.35510696,-0.35510696,0.93482568,0,0)"
       style="fill:#cccccc;stroke-width:4" />
    <rect
       id="rr_02_01"
       width="32"
       height="32"
       x="-1095.3064"
       y="207.69748"
       transform="matrix(-0.99862953,-0.05233596,-0.05233596,0.99862953,0,0)"
       style="fill:#cccccc;stroke-width:4" />
    <rect
       id="rr_02_02"
       width="32"
       height="32"
       x="-1150.2279"
       y="154.19409"
       transform="matrix(-0.9945219,-0.10452846,-0.10452846,0.9945219,0,0)"
       style="fill:#cccccc;stroke-width:4" />
    <rect
       id="rr_02_03"
       width="32"
       height="32"
       x="-1202.2104"
       y="96.19812"
       transform="matrix(-0.98768834,-0.15643447,-0.15643447,0.98768834,0,0)"
       style="fill:#cccccc;stroke-width:4" />
    <rect
       id="rr_02_04"
       width="32"
       height="32"
       x="-1252.7865"
       y="33.478985"
       transform="matrix(-0.9781476,-0.20791169,-0.20791169,0.9781476,0,0)"
       style="fill:#cccccc;stroke-width:4" />
    <rect
       id="rr_02_05"
       width="32"
       height="32"
       x="-1298.1279"
       y="-31.080017"
       transform="matrix(-0.96592583,-0.25881905,-0.25881905,0.96592583,0,0)"
       style="fill:#cccccc;stroke-width:4" />
    <rect
       id="rr_02_06"
       width="32"
       height="32"
       x="-1336.9799"
       y="-100.80846"
       transform="matrix(-0.95105652,-0.30901699,-0.30901699,0.95105652,0,0)"
       style="fill:#cccccc;stroke-width:4" />
    <rect
       id="rr_02_07"
       width="32"
       height="32"
       x="-1370.2039"
       y="-171.29314"
       transform="matrix(-0.93358043,-0.35836795,-0.35836795,0.93358043,0,0)"
       style="fill:#cccccc;stroke-width:4" />
    <rect
       id="rr_03_01"
       width="32"
       height="32"
       x="-1098.1368"
       y="108.72758"
       transform="matrix(-0.99602554,-0.08906814,-0.08906814,0.99602554,0,0)"
       style="fill:#cccccc;stroke-width:4" />
    <rect
       id="rr_03_02"
       width="32"
       height="32"
       x="-1143.2052"
       y="64.377319"
       transform="matrix(-0.99164867,-0.12896867,-0.12896867,0.99164867,0,0)"
       style="fill:#cccccc;stroke-width:4" />
    <rect
       id="rr_03_03"
       width="32"
       height="32"
       x="-1186.2731"
       y="18.45834"
       transform="matrix(-0.98570347,-0.16848938,-0.16848938,0.98570347,0,0)"
       style="fill:#cccccc;stroke-width:4" />
    <rect
       id="rr_03_04"
       width="32"
       height="32"
       x="-1227.6476"
       y="-29.356344"
       transform="matrix(-0.9781476,-0.20791169,-0.20791169,0.9781476,0,0)"
       style="fill:#cccccc;stroke-width:4" />
    <rect
       id="rr_03_05"
       width="32"
       height="32"
       x="-1266.9027"
       y="-78.5746"
       transform="matrix(-0.96905883,-0.24682988,-0.24682988,0.96905883,0,0)"
       style="fill:#cccccc;stroke-width:4" />
    <rect
       id="rr_03_06"
       width="32"
       height="32"
       x="-1304.1603"
       y="-129.32196"
       transform="matrix(-0.95842224,-0.28535383,-0.28535383,0.95842224,0,0)"
       style="fill:#cccccc;stroke-width:4" />
    <rect
       id="rr_03_07"
       width="32"
       height="32"
       x="-1339.5088"
       y="-181.74857"
       transform="matrix(-0.94619837,-0.32358715,-0.32358715,0.94619837,0,0)"
       style="fill:#cccccc;stroke-width:4" />
    <rect
       id="rr_03_08"
       width="32"
       height="32"
       x="-1372.5854"
       y="-235.31479"
       transform="matrix(-0.93251302,-0.36113636,-0.36113636,0.93251302,0,0)"
       style="fill:#cccccc;stroke-width:4" />
    <rect
       id="rr_04_01"
       width="32"
       height="32"
       x="-1072.6185"
       y="88.006042"
       transform="matrix(-0.99813637,-0.06102289,-0.06102289,0.99813637,0,0)"
       style="fill:#cccccc;stroke-width:4" />
    <rect
       id="rr_04_02"
       width="32"
       height="32"
       x="-1116.0944"
       y="44.226643"
       transform="matrix(-0.99481253,-0.10172527,-0.10172527,0.99481253,0,0)"
       style="fill:#cccccc;stroke-width:4" />
    <rect
       id="rr_04_03"
       width="32"
       height="32"
       x="-1161.5413"
       y="-1.4408036"
       transform="matrix(-0.98985443,-0.14208523,-0.14208523,0.98985443,0,0)"
       style="fill:#cccccc;stroke-width:4" />
    <rect
       id="rr_04_04"
       width="32"
       height="32"
       x="-1205.0935"
       y="-48.917252"
       transform="matrix(-0.98325959,-0.18221026,-0.18221026,0.98325959,0,0)"
       style="fill:#cccccc;stroke-width:4" />
    <rect
       id="rr_04_05"
       width="32"
       height="32"
       x="-1246.8531"
       y="-98.340347"
       transform="matrix(-0.97500016,-0.22220418,-0.22220418,0.97500016,0,0)"
       style="fill:#cccccc;stroke-width:4" />
    <rect
       id="rr_04_06"
       width="32"
       height="32"
       x="-1286.3955"
       y="-149.20543"
       transform="matrix(-0.96516037,-0.26165907,-0.26165907,0.96516037,0,0)"
       style="fill:#cccccc;stroke-width:4" />
    <rect
       id="rr_04_07"
       width="32"
       height="32"
       x="-1323.8369"
       y="-201.63608"
       transform="matrix(-0.95372468,-0.3006813,-0.3006813,0.95372468,0,0)"
       style="fill:#cccccc;stroke-width:4" />
    <rect
       id="rr_04_08"
       width="32"
       height="32"
       x="-1359.2627"
       y="-255.77975"
       transform="matrix(-0.94065278,-0.33937053,-0.33937053,0.94065278,0,0)"
       style="fill:#cccccc;stroke-width:4" />
    <rect
       id="rr_04_09"
       width="32"
       height="32"
       x="-1392.3114"
       y="-311.08493"
       transform="matrix(-0.92607799,-0.37733216,-0.37733216,0.92607799,0,0)"
       style="fill:#cccccc;stroke-width:4" />
    <rect
       id="rr_05_01"
       width="32"
       height="32"
       x="-1071.5875"
       y="-6.9700127"
       transform="matrix(-0.99456129,-0.10415297,-0.10415297,0.99456129,0,0)"
       style="fill:#cccccc;stroke-width:4" />
    <rect
       id="rr_05_02"
       width="32"
       height="32"
       x="-1112.8844"
       y="-42.848869"
       transform="matrix(-0.99058519,-0.13689768,-0.13689768,0.99058519,0,0)"
       style="fill:#cccccc;stroke-width:4" />
    <rect
       id="rr_05_03"
       width="32"
       height="32"
       x="-1157.1066"
       y="-80.970795"
       transform="matrix(-0.98550172,-0.16966544,-0.16966544,0.98550172,0,0)"
       style="fill:#cccccc;stroke-width:4" />
    <rect
       id="rr_05_04"
       width="32"
       height="32"
       x="-1195.8789"
       y="-119.89169"
       transform="matrix(-0.9793699,-0.20207571,-0.20207571,0.9793699,0,0)"
       style="fill:#cccccc;stroke-width:4" />
    <rect
       id="rr_05_05"
       width="32"
       height="32"
       x="-1235.4519"
       y="-160.8277"
       transform="matrix(-0.97213161,-0.23443579,-0.23443579,0.97213161,0,0)"
       style="fill:#cccccc;stroke-width:4" />
    <rect
       id="rr_05_06"
       width="32"
       height="32"
       x="-1273.4343"
       y="-203.02763"
       transform="matrix(-0.96387089,-0.26636988,-0.26636988,0.96387089,0,0)"
       style="fill:#cccccc;stroke-width:4" />
    <rect
       id="rr_05_07"
       width="32"
       height="32"
       x="-1308.0292"
       y="-246.10524"
       transform="matrix(-0.95456146,-0.29801414,-0.29801414,0.95456146,0,0)"
       style="fill:#cccccc;stroke-width:4" />
    <rect
       id="rr_05_08"
       width="32"
       height="32"
       x="-1343.8107"
       y="-289.35928"
       transform="matrix(-0.94415594,-0.32949896,-0.32949896,0.94415594,0,0)"
       style="fill:#cccccc;stroke-width:4" />
    <rect
       id="rr_05_09"
       width="32"
       height="32"
       x="-1374.6809"
       y="-336.93066"
       transform="matrix(-0.93277519,-0.36045867,-0.36045867,0.93277519,0,0)"
       style="fill:#cccccc;stroke-width:4" />
    <rect
       id="rr_05_10"
       width="32"
       height="32"
       x="-1404.496"
       y="-379.52951"
       transform="matrix(-0.92031129,-0.39118682,-0.39118682,0.92031129,0,0)"
       style="fill:#cccccc;stroke-width:4" />
    <rect
       id="fm_01_04"
       width="32"
       height="32"
       x="1028.3436"
       y="546.47925"
       transform="rotate(3.2739689)"
       style="fill:#cccccc;stroke-width:4" />
    <rect
       id="fm_01_03"
       width="32"
       height="32"
       x="952.22229"
       y="597.94995"
       transform="rotate(0.34396917)"
       style="fill:#cccccc;stroke-width:4" />
    <rect
       id="fm_01_02"
       width="32"
       height="32"
       x="876.08673"
       y="644.17163"
       transform="rotate(-2.586032)"
       style="fill:#cccccc;stroke-width:4" />
    <rect
       id="fm_01_01"
       width="32"
       height="32"
       x="796.7608"
       y="688.58423"
       transform="rotate(-5.5260333)"
       style="fill:#cccccc;stroke-width:4" />
    <rect
       id="fm_02_06"
       width="32"
       height="32"
       x="1098.6395"
       y="440.63306"
       transform="rotate(6.4186113)"
       style="fill:#cccccc;stroke-width:4" />
    <rect
       id="fm_02_05"
       width="32"
       height="32"
       x="1028.5836"
       y="499.94092"
       transform="rotate(3.4186114)"
       style="fill:#cccccc;stroke-width:4" />
    <rect
       id="fm_02_04"
       width="32"
       height="32"
       x="953.82062"
       y="553.41931"
       transform="rotate(0.41861001)"
       style="fill:#cccccc;stroke-width:4" />
    <rect
       id="fm_02_03"
       width="32"
       height="32"
       x="878.24347"
       y="603.63269"
       transform="rotate(-2.5813897)"
       style="fill:#cccccc;stroke-width:4" />
    <rect
       id="fm_02_02"
       width="32"
       height="32"
       x="803.19073"
       y="646.93695"
       transform="rotate(-5.5813909)"
       style="fill:#cccccc;stroke-width:4" />
    <rect
       id="fm_02_01"
       width="32"
       height="32"
       x="727.89923"
       y="687.43518"
       transform="rotate(-8.5813922)"
       style="fill:#cccccc;stroke-width:4" />
    <rect
       id="fm_03_08"
       width="32"
       height="32"
       x="1129.9347"
       y="385.58386"
       transform="rotate(7.3086112)"
       style="fill:#cccccc;stroke-width:4" />
    <rect
       id="fm_03_07"
       width="32"
       height="32"
       x="1071.9604"
       y="430.42703"
       transform="rotate(5.0086114)"
       style="fill:#cccccc;stroke-width:4" />
    <rect
       id="fm_03_06"
       width="32"
       height="32"
       x="1012.497"
       y="472.72797"
       transform="rotate(2.7186113)"
       style="fill:#cccccc;stroke-width:4" />
    <rect
       id="fm_03_05"
       width="32"
       height="32"
       x="951.12097"
       y="512.7879"
       transform="rotate(0.41861001)"
       style="fill:#cccccc;stroke-width:4" />
    <rect
       id="fm_03_04"
       width="32"
       height="32"
       x="888.46271"
       y="550.19464"
       transform="rotate(-1.8713894)"
       style="fill:#cccccc;stroke-width:4" />
    <rect
       id="fm_03_03"
       width="32"
       height="32"
       x="824.36005"
       y="585.06812"
       transform="rotate(-4.1613903)"
       style="fill:#cccccc;stroke-width:4" />
    <rect
       id="fm_03_02"
       width="32"
       height="32"
       x="758.62695"
       y="617.48737"
       transform="rotate(-6.461391)"
       style="fill:#cccccc;stroke-width:4" />
    <rect
       id="fm_03_01"
       width="32"
       height="32"
       x="691.93921"
       y="647.11859"
       transform="rotate(-8.7513918)"
       style="fill:#cccccc;stroke-width:4" />
    <rect
       id="fm_04_10"
       width="32"
       height="32"
       x="1141.5538"
       y="311.43439"
       transform="rotate(8.9200835)"
       style="fill:#cccccc;stroke-width:4" />
    <rect
       id="fm_04_09"
       width="32"
       height="32"
       x="1198.7109"
       y="246.18799"
       transform="rotate(12.095903)"
       style="fill:#cccccc;stroke-width:4" />
    <rect
       id="fm_04_08"
       width="32"
       height="32"
       x="1087.1089"
       y="357.87149"
       transform="rotate(6.5800836)"
       style="fill:#cccccc;stroke-width:4" />
    <rect
       id="fm_04_07"
       width="32"
       height="32"
       x="1027.0894"
       y="401.51614"
       transform="rotate(4.2500837)"
       style="fill:#cccccc;stroke-width:4" />
    <rect
       id="fm_04_06"
       width="32"
       height="32"
       x="965.4129"
       y="444.6842"
       transform="rotate(1.9200832)"
       style="fill:#cccccc;stroke-width:4" />
    <rect
       id="fm_04_05"
       width="32"
       height="32"
       x="901.68982"
       y="483.46954"
       transform="rotate(-0.41991758)"
       style="fill:#cccccc;stroke-width:4" />
    <rect
       id="fm_04_04"
       width="32"
       height="32"
       x="836.71765"
       y="519.47266"
       transform="rotate(-2.7499177)"
       style="fill:#cccccc;stroke-width:4" />
    <rect
       id="fm_04_03"
       width="32"
       height="32"
       x="770.33582"
       y="552.80426"
       transform="rotate(-5.0799185)"
       style="fill:#cccccc;stroke-width:4" />
    <rect
       id="fm_04_02"
       width="32"
       height="32"
       x="702.36072"
       y="583.53497"
       transform="rotate(-7.41992)"
       style="fill:#cccccc;stroke-width:4" />
    <rect
       id="fm_04_01"
       width="32"
       height="32"
       x="633.48517"
       y="611.35132"
       transform="rotate(-9.7499201)"
       style="fill:#cccccc;stroke-width:4" />
    <rect
       id="fl_01_03"
       width="27.487778"
       height="27.487778"
       x="-212.18762"
       y="945.85236"
       transform="rotate(-46.306642)"
       style="fill:#cccccc;stroke-width:3.43597" />
    <rect
       id="fl_01_02"
       width="27.487778"
       height="27.487778"
       x="-350.76657"
       y="916.47144"
       transform="rotate(-52.306642)"
       style="fill:#cccccc;stroke-width:3.43597" />
    <rect
       id="fl_01_01"
       width="27.487778"
       height="27.487778"
       x="-379.85132"
       y="919.70331"
       transform="rotate(-51.917977)"
       style="fill:#cccccc;stroke-width:3.43597" />
    <rect
       id="fl_02_03"
       width="27.487778"
       height="27.487778"
       x="-293.88815"
       y="891.3056"
       transform="rotate(-48.539807)"
       style="fill:#cccccc;stroke-width:3.43597" />
    <rect
       id="fl_02_02"
       width="27.487778"
       height="27.487778"
       x="-446.69702"
       y="853.29413"
       transform="rotate(-55.209807)"
       style="fill:#cccccc;stroke-width:3.43597" />
    <rect
       id="fl_02_01"
       width="27.487778"
       height="27.487778"
       x="-588.29565"
       y="792.28314"
       transform="rotate(-61.869807)"
       style="fill:#cccccc;stroke-width:3.43597" />
    <rect
       id="fl_03_04"
       width="27.487778"
       height="27.487778"
       x="-264.75537"
       y="849.59528"
       transform="rotate(-47.440643)"
       style="fill:#cccccc;stroke-width:3.43597" />
    <rect
       id="fl_03_03"
       width="27.487778"
       height="27.487778"
       x="-379.2446"
       y="823.75549"
       transform="rotate(-52.240643)"
       style="fill:#cccccc;stroke-width:3.43597" />
    <rect
       id="fl_03_02"
       width="27.487778"
       height="27.487778"
       x="-491.17004"
       y="788.42664"
       transform="rotate(-57.040643)"
       style="fill:#cccccc;stroke-width:3.43597" />
    <rect
       id="fl_03_01"
       width="27.487778"
       height="27.487778"
       x="-599.74658"
       y="743.85535"
       transform="rotate(-61.840643)"
       style="fill:#cccccc;stroke-width:3.43597" />
    <rect
       id="fl_03_08"
       width="27.487778"
       height="27.487778"
       x="137.38995"
       y="858.26868"
       transform="rotate(-32.173171)"
       style="fill:#cccccc;stroke-width:3.43597" />
    <rect
       id="fl_03_07"
       width="27.487778"
       height="27.487778"
       x="20.764435"
       y="866.04956"
       transform="rotate(-36.973172)"
       style="fill:#cccccc;stroke-width:3.43597" />
    <rect
       id="fl_03_06"
       width="27.487778"
       height="27.487778"
       x="-96.103134"
       y="864.04437"
       transform="rotate(-41.773172)"
       style="fill:#cccccc;stroke-width:3.43597" />
    <rect
       id="fl_03_05"
       width="27.487778"
       height="27.487778"
       x="-212.39307"
       y="852.26593"
       transform="rotate(-46.573172)"
       style="fill:#cccccc;stroke-width:3.43597" />
    <rect
       id="fl_04_04"
       width="27.487778"
       height="27.487778"
       x="-281.38611"
       y="797.73285"
       transform="rotate(-48.363189)"
       style="fill:#cccccc;stroke-width:3.43597" />
    <rect
       id="fl_04_03"
       width="27.487778"
       height="27.487778"
       x="-402.62399"
       y="768.55182"
       transform="rotate(-53.453189)"
       style="fill:#cccccc;stroke-width:3.43597" />
    <rect
       id="fl_04_02"
       width="27.487778"
       height="27.487778"
       x="-520.79492"
       y="728.72961"
       transform="rotate(-58.543189)"
       style="fill:#cccccc;stroke-width:3.43597" />
    <rect
       id="fl_04_07"
       width="27.487778"
       height="27.487778"
       x="-24.024124"
       y="818.54449"
       transform="rotate(-39.801276)"
       style="fill:#cccccc;stroke-width:3.43597" />
    <rect
       id="fl_04_06"
       width="27.487778"
       height="27.487778"
       x="-85.205482"
       y="818.9165"
       transform="rotate(-40.638419)"
       style="fill:#cccccc;stroke-width:3.43597" />
    <rect
       id="fl_04_05"
       width="27.487778"
       height="27.487778"
       x="-203.53479"
       y="807.07904"
       transform="rotate(-45.729995)"
       style="fill:#cccccc;stroke-width:3.43597" />
    <rect
       id="fl_04_01"
       width="27.487778"
       height="27.487778"
       x="-634.96655"
       y="678.57983"
       transform="rotate(-63.633189)"
       style="fill:#cccccc;stroke-width:3.43597" />
    <rect
       id="fl_05_05"
       width="27.487778"
       height="27.487778"
       x="-85.375931"
       y="768.74097"
       transform="rotate(-41.808738)"
       style="fill:#cccccc;stroke-width:3.43597" />
    <rect
       id="fl_05_04"
       width="27.487778"
       height="27.487778"
       x="-182.92755"
       y="760.33154"
       transform="rotate(-45.808738)"
       style="fill:#cccccc;stroke-width:3.43597" />
    <rect
       id="fl_05_07"
       width="27.487778"
       height="27.487778"
       x="193.60939"
       y="752.32465"
       transform="rotate(-27.623187)"
       style="fill:#cccccc;stroke-width:3.43597" />
    <rect
       id="fl_05_06"
       width="27.487778"
       height="27.487778"
       x="54.428482"
       y="768.2337"
       transform="rotate(-34.716267)"
       style="fill:#cccccc;stroke-width:3.43597" />
    <rect
       id="fl_05_03"
       width="27.487778"
       height="27.487778"
       x="-279.65479"
       y="745.13641"
       transform="rotate(-49.808738)"
       style="fill:#cccccc;stroke-width:3.43597" />
    <rect
       id="fl_05_02"
       width="27.487778"
       height="27.487778"
       x="-375.08661"
       y="723.23254"
       transform="rotate(-53.808738)"
       style="fill:#cccccc;stroke-width:3.43597" />
    <rect
       id="fl_05_01"
       width="27.487778"
       height="27.487778"
       x="-468.75787"
       y="694.72485"
       transform="rotate(-57.808738)"
       style="fill:#cccccc;stroke-width:3.43597" />
    <rect
       id="fl_06_06"
       width="27.487778"
       height="27.487778"
       x="172.55461"
       y="714.84119"
       transform="rotate(-28.939834)"
       style="fill:#cccccc;stroke-width:3.43597" />
    <rect
       id="fl_06_05"
       width="27.487778"
       height="27.487778"
       x="91.245659"
       y="723.28235"
       transform="rotate(-32.259834)"
       style="fill:#cccccc;stroke-width:3.43597" />
    <rect
       id="fl_06_04"
       width="27.487778"
       height="27.487778"
       x="9.5840578"
       y="727.00226"
       transform="rotate(-35.579834)"
       style="fill:#cccccc;stroke-width:3.43597" />
    <rect
       id="fl_06_03"
       width="27.487778"
       height="27.487778"
       x="-140.57555"
       y="720.63599"
       transform="rotate(-44.001634)"
       style="fill:#cccccc;stroke-width:3.43597" />
    <rect
       id="fl_06_02"
       width="27.487778"
       height="27.487778"
       x="-221.69475"
       y="710.93439"
       transform="rotate(-47.321634)"
       style="fill:#cccccc;stroke-width:3.43597" />
    <rect
       id="fl_06_01"
       width="27.487778"
       height="27.487778"
       x="-302.11627"
       y="696.55042"
       transform="rotate(-50.641634)"
       style="fill:#cccccc;stroke-width:3.43597" />
    <rect
       id="fl_07_04"
       width="27.487778"
       height="27.487778"
       x="183.71478"
       y="670.50159"
       transform="rotate(-27.784948)"
       style="fill:#cccccc;stroke-width:3.43597" />
    <rect
       id="fl_07_03"
       width="27.487778"
       height="27.487778"
       x="39.952328"
       y="690.24963"
       transform="rotate(-36.206752)"
       style="fill:#cccccc;stroke-width:3.43597" />
    <rect
       id="fl_07_02"
       width="27.487778"
       height="27.487778"
       x="-39.71019"
       y="691.05347"
       transform="rotate(-39.526751)"
       style="fill:#cccccc;stroke-width:3.43597" />
    <rect
       id="fl_07_01"
       width="27.487778"
       height="27.487778"
       x="-119.28551"
       y="687.24219"
       transform="rotate(-42.846751)"
       style="fill:#cccccc;stroke-width:3.43597" />
    <rect
       id="fl_01_06"
       width="27.487778"
       height="27.487778"
       x="78.830887"
       y="949.71295"
       transform="rotate(-35.724475)"
       style="fill:#cccccc;stroke-width:3.43597" />
    <rect
       id="fl_01_05"
       width="27.487778"
       height="27.487778"
       x="-72.781593"
       y="952.71271"
       transform="rotate(-42.292962)"
       style="fill:#cccccc;stroke-width:3.43597" />
    <rect
       id="fl_01_04"
       width="27.487778"
       height="27.487778"
       x="-209.06412"
       y="939.51135"
       transform="rotate(-48.244945)"
       style="fill:#cccccc;stroke-width:3.43597" />
    <rect
       id="fl_02_06"
       width="27.487778"
       height="27.487778"
       x="-0.35472158"
       y="913.35522"
       transform="rotate(-38.331235)"
       style="fill:#cccccc;stroke-width:3.43597" />
    <rect
       id="fl_02_05"
       width="27.487778"
       height="27.487778"
       x="-145.15315"
       y="909.13574"
       transform="rotate(-44.838074)"
       style="fill:#cccccc;stroke-width:3.43597" />
    <rect
       id="fl_02_04"
       width="27.487778"
       height="27.487778"
       x="-138.35565"
       y="914.48718"
       transform="rotate(-41.754302)"
       style="fill:#cccccc;stroke-width:3.43597" />
    <rect
       id="fl_02_07"
       width="27.487778"
       height="27.487778"
       x="40.540939"
       y="910.30359"
       transform="rotate(-38.331235)"
       style="fill:#cccccc;stroke-width:3.43597" />
    <rect
       id="fl_04_08"
       width="27.487778"
       height="27.487778"
       x="20.910912"
       y="820.65588"
       transform="rotate(-39.801276)"
       style="fill:#cccccc;stroke-width:3.43597" />
    <rect
       id="fr_01_04"
       width="27.487778"
       height="27.487778"
       x="-1550.2388"
       y="-454.66324"
       transform="matrix(-0.6907986,-0.72304723,-0.72304723,0.6907986,0,0)"
       style="fill:#cccccc;stroke-width:3.43597" />
    <rect
       id="fr_01_05"
       width="27.487778"
       height="27.487778"
       x="-1535.0936"
       y="-616.23657"
       transform="matrix(-0.61143531,-0.79129442,-0.79129442,0.61143531,0,0)"
       style="fill:#cccccc;stroke-width:3.43597" />
    <rect
       id="fr_01_06"
       width="27.487778"
       height="27.487778"
       x="-1574.5483"
       y="-604.93561"
       transform="matrix(-0.61678894,-0.78712858,-0.78712858,0.61678894,0,0)"
       style="fill:#cccccc;stroke-width:3.43597" />
    <rect
       id="fr_02_05"
       width="27.487778"
       height="27.487778"
       x="-1576.3503"
       y="-560.2851"
       transform="matrix(-0.66209954,-0.7494159,-0.7494159,0.66209954,0,0)"
       style="fill:#cccccc;stroke-width:3.43597" />
    <rect
       id="fr_02_06"
       width="27.487778"
       height="27.487778"
       x="-1551.8755"
       y="-737.43066"
       transform="matrix(-0.57057301,-0.82124688,-0.82124688,0.57057301,0,0)"
       style="fill:#cccccc;stroke-width:3.43597" />
    <rect
       id="fr_02_07"
       width="27.487778"
       height="27.487778"
       x="-1501.5282"
       y="-915.883"
       transform="matrix(-0.47147667,-0.88187854,-0.88187854,0.47147667,0,0)"
       style="fill:#cccccc;stroke-width:3.43597" />
    <rect
       id="fr_03_05"
       width="27.487778"
       height="27.487778"
       x="-1574.827"
       y="-577.12701"
       transform="matrix(-0.67635365,-0.73657705,-0.73657705,0.67635365,0,0)"
       style="fill:#cccccc;stroke-width:3.43597" />
    <rect
       id="fr_03_06"
       width="27.487778"
       height="27.487778"
       x="-1565.3367"
       y="-707.58728"
       transform="matrix(-0.6123464,-0.79058958,-0.79058958,0.6123464,0,0)"
       style="fill:#cccccc;stroke-width:3.43597" />
    <rect
       id="fr_03_07"
       width="27.487778"
       height="27.487778"
       x="-1544.9629"
       y="-836.79504"
       transform="matrix(-0.54404398,-0.8390567,-0.8390567,0.54404398,0,0)"
       style="fill:#cccccc;stroke-width:3.43597" />
    <rect
       id="fr_03_08"
       width="27.487778"
       height="27.487778"
       x="-1513.8485"
       y="-963.84558"
       transform="matrix(-0.47192549,-0.88163844,-0.88163844,0.47192549,0,0)"
       style="fill:#cccccc;stroke-width:3.43597" />
    <rect
       id="fr_03_01"
       width="27.487778"
       height="27.487778"
       x="-1502.1379"
       y="-173.12534"
       transform="matrix(-0.8464426,-0.53247998,-0.53247998,0.8464426,0,0)"
       style="fill:#cccccc;stroke-width:3.43597" />
    <rect
       id="fr_03_02"
       width="27.487778"
       height="27.487778"
       x="-1526.7084"
       y="-298.91946"
       transform="matrix(-0.79891721,-0.60144101,-0.60144101,0.79891721,0,0)"
       style="fill:#cccccc;stroke-width:3.43597" />
    <rect
       id="fr_03_03"
       width="27.487778"
       height="27.487778"
       x="-1540.6666"
       y="-426.32806"
       transform="matrix(-0.74578801,-0.66618334,-0.66618334,0.74578801,0,0)"
       style="fill:#cccccc;stroke-width:3.43597" />
    <rect
       id="fr_03_04"
       width="27.487778"
       height="27.487778"
       x="-1543.9148"
       y="-554.45886"
       transform="matrix(-0.68742764,-0.72625287,-0.72625287,0.68742764,0,0)"
       style="fill:#cccccc;stroke-width:3.43597" />
    <rect
       id="fr_04_05"
       width="27.487778"
       height="27.487778"
       x="-1568.3168"
       y="-649.89777"
       transform="matrix(-0.66440652,-0.74737138,-0.74737138,0.66440652,0,0)"
       style="fill:#cccccc;stroke-width:3.43597" />
    <rect
       id="fr_04_06"
       width="27.487778"
       height="27.487778"
       x="-1556.0454"
       y="-787.54724"
       transform="matrix(-0.59547934,-0.80337062,-0.80337062,0.59547934,0,0)"
       style="fill:#cccccc;stroke-width:3.43597" />
    <rect
       id="fr_04_07"
       width="27.487778"
       height="27.487778"
       x="-1531.6099"
       y="-923.56506"
       transform="matrix(-0.5218557,-0.85303378,-0.85303378,0.5218557,0,0)"
       style="fill:#cccccc;stroke-width:3.43597" />
    <rect
       id="fr_04_02"
       width="27.487778"
       height="27.487778"
       x="-1512.1333"
       y="-421.35748"
       transform="matrix(-0.76826927,-0.64012681,-0.64012681,0.76826927,0,0)"
       style="fill:#cccccc;stroke-width:3.43597" />
    <rect
       id="fr_04_03"
       width="27.487778"
       height="27.487778"
       x="-1555.0402"
       y="-442.59491"
       transform="matrix(-0.75883477,-0.65128319,-0.65128319,0.75883477,0,0)"
       style="fill:#cccccc;stroke-width:3.43597" />
    <rect
       id="fr_04_04"
       width="27.487778"
       height="27.487778"
       x="-1555.6132"
       y="-579.89923"
       transform="matrix(-0.69804052,-0.71605826,-0.71605826,0.69804052,0,0)"
       style="fill:#cccccc;stroke-width:3.43597" />
    <rect
       id="fr_04_08"
       width="27.487778"
       height="27.487778"
       x="-1495.203"
       y="-1056.8789"
       transform="matrix(-0.44411626,-0.89596917,-0.89596917,0.44411626,0,0)"
       style="fill:#cccccc;stroke-width:3.43597" />
    <rect
       id="fr_05_03"
       width="27.487778"
       height="27.487778"
       x="-1529.1383"
       y="-522.52783"
       transform="matrix(-0.74537434,-0.66664615,-0.66664615,0.74537434,0,0)"
       style="fill:#cccccc;stroke-width:3.43597" />
    <rect
       id="fr_05_04"
       width="27.487778"
       height="27.487778"
       x="-1533.0983"
       y="-628.50372"
       transform="matrix(-0.69705576,-0.71701692,-0.71701692,0.69705576,0,0)"
       style="fill:#cccccc;stroke-width:3.43597" />
    <rect
       id="fr_05_01"
       width="27.487778"
       height="27.487778"
       x="-1522.5707"
       y="-145.75723"
       transform="matrix(-0.88601602,-0.46365463,-0.46365463,0.88601602,0,0)"
       style="fill:#cccccc;stroke-width:3.43597" />
    <rect
       id="fr_05_02"
       width="27.487778"
       height="27.487778"
       x="-1537.7206"
       y="-334.89163"
       transform="matrix(-0.82198238,-0.56951292,-0.56951292,0.82198238,0,0)"
       style="fill:#cccccc;stroke-width:3.43597" />
    <rect
       id="fr_05_05"
       width="27.487778"
       height="27.487778"
       x="-1529.6567"
       y="-734.49878"
       transform="matrix(-0.6453412,-0.76389446,-0.76389446,0.6453412,0,0)"
       style="fill:#cccccc;stroke-width:3.43597" />
    <rect
       id="fr_05_06"
       width="27.487778"
       height="27.487778"
       x="-1518.8293"
       y="-839.99414"
       transform="matrix(-0.59048259,-0.80705037,-0.80705037,0.59048259,0,0)"
       style="fill:#cccccc;stroke-width:3.43597" />
    <rect
       id="fr_05_07"
       width="27.487778"
       height="27.487778"
       x="-1500.6692"
       y="-944.47723"
       transform="matrix(-0.53274722,-0.84627442,-0.84627442,0.53274722,0,0)"
       style="fill:#cccccc;stroke-width:3.43597" />
    <rect
       id="fr_06_01"
       width="27.487778"
       height="27.487778"
       x="-1522.5361"
       y="-222.43756"
       transform="matrix(-0.87512832,-0.48389092,-0.48389092,0.87512832,0,0)"
       style="fill:#cccccc;stroke-width:3.43597" />
    <rect
       id="fr_06_02"
       width="27.487778"
       height="27.487778"
       x="-1546.7202"
       y="-310.59042"
       transform="matrix(-0.84563622,-0.53375967,-0.53375967,0.84563622,0,0)"
       style="fill:#cccccc;stroke-width:3.43597" />
    <rect
       id="fr_06_03"
       width="27.487778"
       height="27.487778"
       x="-1565.7585"
       y="-399.99402"
       transform="matrix(-0.8133056,-0.58183675,-0.58183675,0.8133056,0,0)"
       style="fill:#cccccc;stroke-width:3.43597" />
    <rect
       id="fr_06_04"
       width="27.487778"
       height="27.487778"
       x="-1533.8716"
       y="-624.93127"
       transform="matrix(-0.71931999,-0.69467888,-0.69467888,0.71931999,0,0)"
       style="fill:#cccccc;stroke-width:3.43597" />
    <rect
       id="fr_06_05"
       width="27.487778"
       height="27.487778"
       x="-1534.7273"
       y="-713.06366"
       transform="matrix(-0.67788213,-0.73517061,-0.73517061,0.67788213,0,0)"
       style="fill:#cccccc;stroke-width:3.43597" />
    <rect
       id="fr_06_06"
       width="27.487778"
       height="27.487778"
       x="-1530.4778"
       y="-801.09882"
       transform="matrix(-0.63416884,-0.7731946,-0.7731946,0.63416884,0,0)"
       style="fill:#cccccc;stroke-width:3.43597" />
    <rect
       id="fr_07_01"
       width="27.487778"
       height="27.487778"
       x="-1529.9227"
       y="-232.42191"
       transform="matrix(-0.88470347,-0.46615424,-0.46615424,0.88470347,0,0)"
       style="fill:#cccccc;stroke-width:3.43597" />
    <rect
       id="fr_07_02"
       width="27.487778"
       height="27.487778"
       x="-1522.965"
       y="-453.91583"
       transform="matrix(-0.80689071,-0.59070076,-0.59070076,0.80689071,0,0)"
       style="fill:#cccccc;stroke-width:3.43597" />
    <rect
       id="fr_07_03"
       width="27.487778"
       height="27.487778"
       x="-1533.7429"
       y="-541.70416"
       transform="matrix(-0.77132752,-0.63643842,-0.63643842,0.77132752,0,0)"
       style="fill:#cccccc;stroke-width:3.43597" />
    <rect
       id="fr_07_04"
       width="27.487778"
       height="27.487778"
       x="-1539.4186"
       y="-629.96967"
       transform="matrix(-0.73317522,-0.68003977,-0.68003977,0.73317522,0,0)"
       style="fill:#cccccc;stroke-width:3.43597" />
    <rect
       id="fr_01_01"
       width="27.487778"
       height="27.487778"
       x="-1493.6616"
       y="-181.25652"
       transform="matrix(-0.81183418,-0.58388806,-0.58388806,0.81183418,0,0)"
       style="fill:#cccccc;stroke-width:3.43597" />
    <rect
       id="fr_01_02"
       width="27.487778"
       height="27.487778"
       x="-1505.5793"
       y="-350.71161"
       transform="matrix(-0.73971376,-0.67292165,-0.67292165,0.73971376,0,0)"
       style="fill:#cccccc;stroke-width:3.43597" />
    <rect
       id="fr_01_03"
       width="27.487778"
       height="27.487778"
       x="-1498.9795"
       y="-505.46024"
       transform="matrix(-0.66594749,-0.74599862,-0.74599862,0.66594749,0,0)"
       style="fill:#cccccc;stroke-width:3.43597" />
    <rect
       id="fr_02_02"
       width="27.487778"
       height="27.487778"
       x="-1519.7826"
       y="-287.96228"
       transform="matrix(-0.78443838,-0.62020676,-0.62020676,0.78443838,0,0)"
       style="fill:#cccccc;stroke-width:3.43597" />
    <rect
       id="fr_02_03"
       width="27.487778"
       height="27.487778"
       x="-1518.6581"
       y="-456.6275"
       transform="matrix(-0.70910234,-0.70510558,-0.70510558,0.70910234,0,0)"
       style="fill:#cccccc;stroke-width:3.43597" />
    <rect
       id="fr_02_04"
       width="27.487778"
       height="27.487778"
       x="-1583.3441"
       y="-375.40927"
       transform="matrix(-0.74600738,-0.66593768,-0.66593768,0.74600738,0,0)"
       style="fill:#cccccc;stroke-width:3.43597" />
    <rect
       id="fr_02_01"
       width="27.487778"
       height="27.487778"
       x="-1478.887"
       y="-291.01392"
       transform="matrix(-0.78443838,-0.62020676,-0.62020676,0.78443838,0,0)"
       style="fill:#cccccc;stroke-width:3.43597" />
    <rect
       id="fr_04_01"
       width="27.487778"
       height="27.487778"
       x="-1467.1982"
       y="-419.24603"
       transform="matrix(-0.76826927,-0.64012681,-0.64012681,0.76826927,0,0)"
       style="fill:#cccccc;stroke-width:3.43597" />
    <text
       xml:space="preserve"
       id="text4188"
       style="font-size:26.6667px;line-height:1.25;font-family:'London Bridge';-inkscape-font-specification:'London Bridge';white-space:pre;shape-inside:url(#rect4190)"
       transform="translate(-14.773925,9.0950076)"><tspan
         x="844.77539"
         y="43.228545"
         id="tspan11815"><tspan
           style="font-family:sans-serif;-inkscape-font-specification:sans-serif"
           id="tspan11813">FARMA 1 / FARMA 2</tspan></tspan></text>
  </g>
</svg>
