<?xml version="1.0" encoding="UTF-8" standalone="no"?>
<!-- Created with Inkscape (http://www.inkscape.org/) -->

<svg
   width="1920"
   height="1080"
   viewBox="0 0 1920 1080"
   version="1.1"
   id="konferans"
   inkscape:version="1.1.2 (0a00cf5339, 2022-02-04)"
   sodipodi:docname="konferans.svg"
   xmlns:inkscape="http://www.inkscape.org/namespaces/inkscape"
   xmlns:sodipodi="http://sodipodi.sourceforge.net/DTD/sodipodi-0.dtd"
   xmlns="http://www.w3.org/2000/svg"
   xmlns:svg="http://www.w3.org/2000/svg">
  <sodipodi:namedview
     id="namedview7"
     pagecolor="#ffffff"
     bordercolor="#666666"
     borderopacity="1.0"
     inkscape:pageshadow="2"
     inkscape:pageopacity="0.0"
     inkscape:pagecheckerboard="0"
     inkscape:document-units="px"
     showgrid="false"
     inkscape:zoom="1"
     inkscape:cx="979.5"
     inkscape:cy="333"
     inkscape:window-width="1920"
     inkscape:window-height="1007"
     inkscape:window-x="0"
     inkscape:window-y="0"
     inkscape:window-maximized="1"
     inkscape:current-layer="layer1" />
  <defs
     id="defs2">
    <rect
       x="493.30383"
       y="38.401367"
       width="905.88"
       height="83.438171"
       id="rect5984" />
  </defs>
  <g
     inkscape:label="Layer 1"
     inkscape:groupmode="layer"
     id="layer1">
    <rect
       id="use208"
       width="28"
       height="28"
       x="906.60834"
       y="330.41483"
       transform="rotate(-3.2)"
       style="fill:#cccccc;stroke-width:3.5" />
    <rect
       id="use210"
       width="28"
       height="28"
       x="847.54578"
       y="375.9928"
       transform="rotate(-6.13)"
       style="fill:#cccccc;stroke-width:3.5" />
    <rect
       id="use212"
       width="28"
       height="28"
       x="786.23096"
       y="418.49213"
       transform="rotate(-9.06)"
       style="fill:#cccccc;stroke-width:3.5" />
    <rect
       id="use214"
       width="28"
       height="28"
       x="722.60449"
       y="457.93033"
       transform="rotate(-12)"
       style="fill:#cccccc;stroke-width:3.5" />
    <rect
       id="use216"
       width="28"
       height="28"
       x="653.3996"
       y="492.9054"
       transform="rotate(-14.93)"
       style="fill:#cccccc;stroke-width:3.5" />
    <rect
       id="use218"
       width="28"
       height="28"
       x="577.52106"
       y="526.68152"
       transform="rotate(-17.86)"
       style="fill:#cccccc;stroke-width:3.5" />
    <rect
       id="use220"
       width="28"
       height="28"
       x="507.90942"
       y="557.14252"
       transform="rotate(-20.8)"
       style="fill:#cccccc;stroke-width:3.5" />
    <rect
       id="use262"
       width="28"
       height="28"
       x="908.0329"
       y="284.57605"
       transform="rotate(-3)"
       style="fill:#cccccc;stroke-width:3.5" />
    <rect
       id="use264"
       width="28"
       height="28"
       x="853.14795"
       y="331.89819"
       transform="rotate(-6)"
       style="fill:#cccccc;stroke-width:3.5" />
    <rect
       id="use264-3"
       width="28"
       height="28"
       x="814.43121"
       y="330.9689"
       transform="rotate(-6)"
       style="fill:#cccccc;stroke-width:3.5" />
    <rect
       id="use266"
       width="28"
       height="28"
       x="757.66229"
       y="374.60098"
       transform="rotate(-9)"
       style="fill:#cccccc;stroke-width:3.5" />
    <rect
       id="use268"
       width="28"
       height="28"
       x="698.17438"
       y="414.5502"
       transform="rotate(-12)"
       style="fill:#cccccc;stroke-width:3.5" />
    <rect
       id="use270"
       width="28"
       height="28"
       x="636.60321"
       y="451.63715"
       transform="rotate(-15)"
       style="fill:#cccccc;stroke-width:3.5" />
    <rect
       id="use272"
       width="28"
       height="28"
       x="573.7041"
       y="483.84979"
       transform="rotate(-18)"
       style="fill:#cccccc;stroke-width:3.5" />
    <rect
       id="use274"
       width="28"
       height="28"
       x="502.16412"
       y="514.64142"
       transform="rotate(-21)"
       style="fill:#cccccc;stroke-width:3.5" />
    <rect
       id="use316"
       width="28"
       height="28"
       x="909.01733"
       y="241.06084"
       transform="rotate(-2.82)"
       style="fill:#cccccc;stroke-width:3.5" />
    <rect
       id="use318"
       width="28"
       height="28"
       x="862.42694"
       y="277.02579"
       transform="rotate(-5.11)"
       style="fill:#cccccc;stroke-width:3.5" />
    <rect
       id="use320"
       width="28"
       height="28"
       x="814.22357"
       y="311.24478"
       transform="rotate(-7.41)"
       style="fill:#cccccc;stroke-width:3.5" />
    <rect
       id="use322"
       width="28"
       height="28"
       x="764.90472"
       y="343.36594"
       transform="rotate(-9.7)"
       style="fill:#cccccc;stroke-width:3.5" />
    <rect
       id="use324"
       width="28"
       height="28"
       x="714.11774"
       y="373.61789"
       transform="rotate(-12)"
       style="fill:#cccccc;stroke-width:3.5" />
    <rect
       id="use326"
       width="28"
       height="28"
       x="662.38568"
       y="401.68939"
       transform="rotate(-14.29)"
       style="fill:#cccccc;stroke-width:3.5" />
    <rect
       id="use328"
       width="28"
       height="28"
       x="609.57391"
       y="427.67114"
       transform="rotate(-16.58)"
       style="fill:#cccccc;stroke-width:3.5" />
    <rect
       id="use330"
       width="28"
       height="28"
       x="555.52881"
       y="451.6214"
       transform="rotate(-18.88)"
       style="fill:#cccccc;stroke-width:3.5" />
    <rect
       id="use332"
       width="28"
       height="28"
       x="500.80682"
       y="473.2937"
       transform="rotate(-21.17)"
       style="fill:#cccccc;stroke-width:3.5" />
    <rect
       id="use456"
       width="28"
       height="28"
       x="904.35889"
       y="217.69107"
       transform="rotate(-4.42)"
       style="fill:#cccccc;stroke-width:3.5" />
    <rect
       id="use458"
       width="28"
       height="28"
       x="863.31995"
       y="247.31053"
       transform="rotate(-6.31)"
       style="fill:#cccccc;stroke-width:3.5" />
    <rect
       id="use460"
       width="28"
       height="28"
       x="821.10132"
       y="275.70633"
       transform="rotate(-8.21)"
       style="fill:#cccccc;stroke-width:3.5" />
    <rect
       id="use462"
       width="28"
       height="28"
       x="778.19403"
       y="302.5481"
       transform="rotate(-10.1)"
       style="fill:#cccccc;stroke-width:3.5" />
    <rect
       id="use464"
       width="28"
       height="28"
       x="734.19122"
       y="328.09094"
       transform="rotate(-12)"
       style="fill:#cccccc;stroke-width:3.5" />
    <rect
       id="use466"
       width="28"
       height="28"
       x="689.60297"
       y="352.03824"
       transform="rotate(-13.89)"
       style="fill:#cccccc;stroke-width:3.5" />
    <rect
       id="use468"
       width="28"
       height="28"
       x="644.25012"
       y="374.50168"
       transform="rotate(-15.78)"
       style="fill:#cccccc;stroke-width:3.5" />
    <rect
       id="use470"
       width="28"
       height="28"
       x="597.93524"
       y="395.56412"
       transform="rotate(-17.68)"
       style="fill:#cccccc;stroke-width:3.5" />
    <rect
       id="use472"
       width="28"
       height="28"
       x="548.64172"
       y="416.19525"
       transform="rotate(-19.57)"
       style="fill:#cccccc;stroke-width:3.5" />
    <rect
       id="use474"
       width="28"
       height="28"
       x="496.54254"
       y="434.4621"
       transform="rotate(-21.47)"
       style="fill:#cccccc;stroke-width:3.5" />
    <rect
       id="use208-74"
       width="28"
       height="28"
       x="-1035.2632"
       y="222.81287"
       transform="matrix(-0.99844076,-0.0558215,-0.0558215,0.99844076,0,0)"
       style="fill:#cccccc;stroke-width:3.5" />
    <rect
       id="use210-5"
       width="28"
       height="28"
       x="-1086.2861"
       y="169.27109"
       transform="matrix(-0.99428217,-0.10678469,-0.10678469,0.99428217,0,0)"
       style="fill:#cccccc;stroke-width:3.5" />
    <rect
       id="use212-2"
       width="28"
       height="28"
       x="-1134.5062"
       y="113.19125"
       transform="matrix(-0.98752398,-0.15746868,-0.15746868,0.98752398,0,0)"
       style="fill:#cccccc;stroke-width:3.5" />
    <rect
       id="use214-5"
       width="28"
       height="28"
       x="-1179.9463"
       y="54.516243"
       transform="matrix(-0.9781476,-0.20791169,-0.20791169,0.9781476,0,0)"
       style="fill:#cccccc;stroke-width:3.5" />
    <rect
       id="use216-4"
       width="28"
       height="28"
       x="-1226.0425"
       y="-7.2317991"
       transform="matrix(-0.96624131,-0.25763875,-0.25763875,0.96624131,0,0)"
       style="fill:#cccccc;stroke-width:3.5" />
    <rect
       id="use218-7"
       width="28"
       height="28"
       x="-1273.8998"
       y="-68.871117"
       transform="matrix(-0.95180875,-0.3066922,-0.3066922,0.95180875,0,0)"
       style="fill:#cccccc;stroke-width:3.5" />
    <rect
       id="use220-4"
       width="28"
       height="28"
       x="-1310.5282"
       y="-132.58586"
       transform="matrix(-0.93482568,-0.35510696,-0.35510696,0.93482568,0,0)"
       style="fill:#cccccc;stroke-width:3.5" />
    <rect
       id="use262-4"
       width="28"
       height="28"
       x="-1034.2014"
       y="183.75311"
       transform="matrix(-0.99862953,-0.05233596,-0.05233596,0.99862953,0,0)"
       style="fill:#cccccc;stroke-width:3.5" />
    <rect
       id="use264-30"
       width="28"
       height="28"
       x="-1081.1484"
       y="129.56471"
       transform="matrix(-0.9945219,-0.10452846,-0.10452846,0.9945219,0,0)"
       style="fill:#cccccc;stroke-width:3.5" />
    <rect
       id="use264-3-7"
       width="28"
       height="28"
       x="-1119.8651"
       y="128.63542"
       transform="matrix(-0.9945219,-0.10452846,-0.10452846,0.9945219,0,0)"
       style="fill:#cccccc;stroke-width:3.5" />
    <rect
       id="use266-8"
       width="28"
       height="28"
       x="-1163.3939"
       y="71.31144"
       transform="matrix(-0.98768834,-0.15643447,-0.15643447,0.98768834,0,0)"
       style="fill:#cccccc;stroke-width:3.5" />
    <rect
       id="use268-6"
       width="28"
       height="28"
       x="-1204.3765"
       y="11.136196"
       transform="matrix(-0.9781476,-0.20791169,-0.20791169,0.9781476,0,0)"
       style="fill:#cccccc;stroke-width:3.5" />
    <rect
       id="use270-8"
       width="28"
       height="28"
       x="-1242.2268"
       y="-50.795921"
       transform="matrix(-0.96592583,-0.25881905,-0.25881905,0.96592583,0,0)"
       style="fill:#cccccc;stroke-width:3.5" />
    <rect
       id="use272-8"
       width="28"
       height="28"
       x="-1276.2559"
       y="-116.22519"
       transform="matrix(-0.95105652,-0.30901699,-0.30901699,0.95105652,0,0)"
       style="fill:#cccccc;stroke-width:3.5" />
    <rect
       id="use274-4"
       width="28"
       height="28"
       x="-1313.8547"
       y="-181.43031"
       transform="matrix(-0.93358043,-0.35836795,-0.35836795,0.93358043,0,0)"
       style="fill:#cccccc;stroke-width:3.5" />
    <rect
       id="use316-31"
       width="28"
       height="28"
       x="-1033.5243"
       y="146.34003"
       transform="matrix(-0.99878902,-0.04919842,-0.04919842,0.99878902,0,0)"
       style="fill:#cccccc;stroke-width:3.5" />
    <rect
       id="use318-4"
       width="28"
       height="28"
       x="-1074.7789"
       y="104.7617"
       transform="matrix(-0.99602554,-0.08906814,-0.08906814,0.99602554,0,0)"
       style="fill:#cccccc;stroke-width:3.5" />
    <rect
       id="use320-9"
       width="28"
       height="28"
       x="-1114.5083"
       y="61.376049"
       transform="matrix(-0.99164867,-0.12896867,-0.12896867,0.99164867,0,0)"
       style="fill:#cccccc;stroke-width:3.5" />
    <rect
       id="use322-2"
       width="28"
       height="28"
       x="-1152.303"
       y="16.629688"
       transform="matrix(-0.98570347,-0.16848938,-0.16848938,0.98570347,0,0)"
       style="fill:#cccccc;stroke-width:3.5" />
    <rect
       id="use324-0"
       width="28"
       height="28"
       x="-1188.4331"
       y="-29.796125"
       transform="matrix(-0.9781476,-0.20791169,-0.20791169,0.9781476,0,0)"
       style="fill:#cccccc;stroke-width:3.5" />
    <rect
       id="use326-6"
       width="28"
       height="28"
       x="-1222.5258"
       y="-77.423546"
       transform="matrix(-0.96905883,-0.24682988,-0.24682988,0.96905883,0,0)"
       style="fill:#cccccc;stroke-width:3.5" />
    <rect
       id="use328-8"
       width="28"
       height="28"
       x="-1254.6886"
       y="-126.37529"
       transform="matrix(-0.95842224,-0.28535383,-0.28535383,0.95842224,0,0)"
       style="fill:#cccccc;stroke-width:3.5" />
    <rect
       id="use330-9"
       width="28"
       height="28"
       x="-1284.9962"
       y="-176.79491"
       transform="matrix(-0.94619837,-0.32358715,-0.32358715,0.94619837,0,0)"
       style="fill:#cccccc;stroke-width:3.5" />
    <rect
       id="use332-2"
       width="28"
       height="28"
       x="-1313.1388"
       y="-228.16312"
       transform="matrix(-0.93251302,-0.36113636,-0.36113636,0.93251302,0,0)"
       style="fill:#cccccc;stroke-width:3.5" />
    <rect
       id="use456-6"
       width="28"
       height="28"
       x="-1034.7806"
       y="68.768295"
       transform="matrix(-0.99702591,-0.07706706,-0.07706706,0.99702591,0,0)"
       style="fill:#cccccc;stroke-width:3.5" />
    <rect
       id="use458-6"
       width="28"
       height="28"
       x="-1069.8534"
       y="34.51458"
       transform="matrix(-0.99394179,-0.10990779,-0.10990779,0.99394179,0,0)"
       style="fill:#cccccc;stroke-width:3.5" />
    <rect
       id="use460-4"
       width="28"
       height="28"
       x="-1103.9535"
       y="-1.0674702"
       transform="matrix(-0.98975132,-0.14280168,-0.14280168,0.98975132,0,0)"
       style="fill:#cccccc;stroke-width:3.5" />
    <rect
       id="use462-9"
       width="28"
       height="28"
       x="-1136.6857"
       y="-37.564789"
       transform="matrix(-0.98450318,-0.17536673,-0.17536673,0.98450318,0,0)"
       style="fill:#cccccc;stroke-width:3.5" />
    <rect
       id="use464-5"
       width="28"
       height="28"
       x="-1168.3596"
       y="-75.323074"
       transform="matrix(-0.9781476,-0.20791169,-0.20791169,0.9781476,0,0)"
       style="fill:#cccccc;stroke-width:3.5" />
    <rect
       id="use466-0"
       width="28"
       height="28"
       x="-1198.6074"
       y="-113.9039"
       transform="matrix(-0.97075839,-0.24005862,-0.24005862,0.97075839,0,0)"
       style="fill:#cccccc;stroke-width:3.5" />
    <rect
       id="use468-4"
       width="28"
       height="28"
       x="-1227.566"
       y="-153.46161"
       transform="matrix(-0.96231298,-0.27194435,-0.27194435,0.96231298,0,0)"
       style="fill:#cccccc;stroke-width:3.5" />
    <rect
       id="use470-8"
       width="28"
       height="28"
       x="-1255.3473"
       y="-194.16919"
       transform="matrix(-0.95276755,-0.3037005,-0.3037005,0.95276755,0,0)"
       style="fill:#cccccc;stroke-width:3.5" />
    <rect
       id="use472-7"
       width="28"
       height="28"
       x="-1284.182"
       y="-234.34001"
       transform="matrix(-0.94223297,-0.33495826,-0.33495826,0.94223297,0,0)"
       style="fill:#cccccc;stroke-width:3.5" />
    <rect
       id="use474-1"
       width="28"
       height="28"
       x="-1313.7054"
       y="-276.48291"
       transform="matrix(-0.93060934,-0.36601401,-0.36601401,0.93060934,0,0)"
       style="fill:#cccccc;stroke-width:3.5" />
    <rect
       id="use208-7"
       width="28"
       height="28"
       x="1169.8262"
       y="272.97552"
       transform="rotate(11.067144)"
       style="fill:#cccccc;stroke-width:3.5" />
    <rect
       id="use210-3"
       width="28"
       height="28"
       x="1099.4973"
       y="334.06476"
       transform="rotate(8.1371441)"
       style="fill:#cccccc;stroke-width:3.5" />
    <rect
       id="use212-6"
       width="28"
       height="28"
       x="1036.0127"
       y="389.86072"
       transform="rotate(5.2071441)"
       style="fill:#cccccc;stroke-width:3.5" />
    <rect
       id="use214-1"
       width="28"
       height="28"
       x="969.52893"
       y="442.30597"
       transform="rotate(2.2671441)"
       style="fill:#cccccc;stroke-width:3.5" />
    <rect
       id="use216-2"
       width="28"
       height="28"
       x="898.77686"
       y="491.90015"
       transform="rotate(-0.66285586)"
       style="fill:#cccccc;stroke-width:3.5" />
    <rect
       id="use218-9"
       width="28"
       height="28"
       x="824.62469"
       y="538.34564"
       transform="rotate(-3.5928559)"
       style="fill:#cccccc;stroke-width:3.5" />
    <rect
       id="use220-3"
       width="28"
       height="28"
       x="752.10303"
       y="581.23792"
       transform="rotate(-6.5328559)"
       style="fill:#cccccc;stroke-width:3.5" />
    <rect
       id="use316-3"
       width="28"
       height="28"
       x="1172.3436"
       y="224.62933"
       transform="rotate(11.447144)"
       style="fill:#cccccc;stroke-width:3.5" />
    <rect
       id="use318-6"
       width="28"
       height="28"
       x="1124.225"
       y="271.44739"
       transform="rotate(9.1571441)"
       style="fill:#cccccc;stroke-width:3.5" />
    <rect
       id="use320-1"
       width="28"
       height="28"
       x="1076.0347"
       y="316.17743"
       transform="rotate(6.8571441)"
       style="fill:#cccccc;stroke-width:3.5" />
    <rect
       id="use322-0"
       width="28"
       height="28"
       x="1024.316"
       y="358.91519"
       transform="rotate(4.5671441)"
       style="fill:#cccccc;stroke-width:3.5" />
    <rect
       id="use324-6"
       width="28"
       height="28"
       x="972.69574"
       y="399.56525"
       transform="rotate(2.2671441)"
       style="fill:#cccccc;stroke-width:3.5" />
    <rect
       id="use326-3"
       width="28"
       height="28"
       x="919.72064"
       y="437.94806"
       transform="rotate(-0.02285586)"
       style="fill:#cccccc;stroke-width:3.5" />
    <rect
       id="use328-2"
       width="28"
       height="28"
       x="861.17706"
       y="476.02039"
       transform="rotate(-2.3128559)"
       style="fill:#cccccc;stroke-width:3.5" />
    <rect
       id="use330-0"
       width="28"
       height="28"
       x="804.98883"
       y="510.02869"
       transform="rotate(-4.6128559)"
       style="fill:#cccccc;stroke-width:3.5" />
    <rect
       id="use332-6"
       width="28"
       height="28"
       x="747.49365"
       y="543.60803"
       transform="rotate(-6.9028559)"
       style="fill:#cccccc;stroke-width:3.5" />
    <rect
       id="use456-1"
       width="28"
       height="28"
       x="1137.5382"
       y="220.00262"
       transform="rotate(9.8471441)"
       style="fill:#cccccc;stroke-width:3.5" />
    <rect
       id="use456-1-3"
       width="28"
       height="28"
       x="1168.0698"
       y="220.80119"
       transform="rotate(9.8471441)"
       style="fill:#cccccc;stroke-width:3.5" />
    <rect
       id="use458-5"
       width="28"
       height="28"
       x="1098.2778"
       y="257.03445"
       transform="rotate(7.9571441)"
       style="fill:#cccccc;stroke-width:3.5" />
    <rect
       id="use460-5"
       width="28"
       height="28"
       x="1057.5955"
       y="293.00369"
       transform="rotate(6.0571441)"
       style="fill:#cccccc;stroke-width:3.5" />
    <rect
       id="use462-4"
       width="28"
       height="28"
       x="1015.984"
       y="327.49066"
       transform="rotate(4.1671441)"
       style="fill:#cccccc;stroke-width:3.5" />
    <rect
       id="use464-7"
       width="28"
       height="28"
       x="973.0224"
       y="360.82495"
       transform="rotate(2.2671441)"
       style="fill:#cccccc;stroke-width:3.5" />
    <rect
       id="use466-6"
       width="28"
       height="28"
       x="929.22485"
       y="392.61783"
       transform="rotate(0.37714414)"
       style="fill:#cccccc;stroke-width:3.5" />
    <rect
       id="use468-5"
       width="28"
       height="28"
       x="884.40198"
       y="423.01483"
       transform="rotate(-1.5128559)"
       style="fill:#cccccc;stroke-width:3.5" />
    <rect
       id="use470-6"
       width="28"
       height="28"
       x="838.3432"
       y="452.13211"
       transform="rotate(-3.4128559)"
       style="fill:#cccccc;stroke-width:3.5" />
    <rect
       id="use472-9"
       width="28"
       height="28"
       x="791.03619"
       y="481.03091"
       transform="rotate(-5.3028559)"
       style="fill:#cccccc;stroke-width:3.5" />
    <rect
       id="use474-3"
       width="28"
       height="28"
       x="742.60687"
       y="508.05109"
       transform="rotate(-7.2028559)"
       style="fill:#cccccc;stroke-width:3.5" />
    <rect
       id="use208-72"
       width="28"
       height="28"
       x="305.68176"
       y="775.54803"
       transform="rotate(-28.201834)"
       style="fill:#cccccc;stroke-width:3.5" />
    <rect
       id="use210-7"
       width="28"
       height="28"
       x="224.65173"
       y="789.82733"
       transform="rotate(-31.131834)"
       style="fill:#cccccc;stroke-width:3.5" />
    <rect
       id="use212-22"
       width="28"
       height="28"
       x="142.99768"
       y="799.94592"
       transform="rotate(-34.061834)"
       style="fill:#cccccc;stroke-width:3.5" />
    <rect
       id="use214-6"
       width="28"
       height="28"
       x="60.652611"
       y="805.8905"
       transform="rotate(-37.001834)"
       style="fill:#cccccc;stroke-width:3.5" />
    <rect
       id="use216-1"
       width="28"
       height="28"
       x="-21.608072"
       y="807.6051"
       transform="rotate(-39.931834)"
       style="fill:#cccccc;stroke-width:3.5" />
    <rect
       id="use218-0"
       width="28"
       height="28"
       x="-103.84885"
       y="805.11267"
       transform="rotate(-42.861834)"
       style="fill:#cccccc;stroke-width:3.5" />
    <rect
       id="use220-6"
       width="28"
       height="28"
       x="-186.13412"
       y="798.38995"
       transform="rotate(-45.801834)"
       style="fill:#cccccc;stroke-width:3.5" />
    <rect
       id="use262-1"
       width="28"
       height="28"
       x="311.18469"
       y="721.92249"
       transform="rotate(-28.001834)"
       style="fill:#cccccc;stroke-width:3.5" />
    <rect
       id="use264-5"
       width="28"
       height="28"
       x="228.2618"
       y="736.7818"
       transform="rotate(-31.001834)"
       style="fill:#cccccc;stroke-width:3.5" />
    <rect
       id="use266-9"
       width="28"
       height="28"
       x="144.67462"
       y="747.28052"
       transform="rotate(-34.001834)"
       style="fill:#cccccc;stroke-width:3.5" />
    <rect
       id="use268-4"
       width="28"
       height="28"
       x="60.652611"
       y="753.3905"
       transform="rotate(-37.001834)"
       style="fill:#cccccc;stroke-width:3.5" />
    <rect
       id="use270-9"
       width="28"
       height="28"
       x="-23.573967"
       y="755.09448"
       transform="rotate(-40.001834)"
       style="fill:#cccccc;stroke-width:3.5" />
    <rect
       id="use272-0"
       width="28"
       height="28"
       x="-107.77441"
       y="752.38837"
       transform="rotate(-43.001834)"
       style="fill:#cccccc;stroke-width:3.5" />
    <rect
       id="use384"
       width="28"
       height="28"
       x="320.53076"
       y="614.96509"
       transform="rotate(-27.661834)"
       style="fill:#cccccc;stroke-width:3.5" />
    <rect
       id="use386"
       width="28"
       height="28"
       x="243.4146"
       y="625.92749"
       transform="rotate(-30.001834)"
       style="fill:#cccccc;stroke-width:3.5" />
    <rect
       id="use388"
       width="28"
       height="28"
       x="168.91333"
       y="636.78833"
       transform="rotate(-32.331834)"
       style="fill:#cccccc;stroke-width:3.5" />
    <rect
       id="use390"
       width="28"
       height="28"
       x="93.970779"
       y="644.20959"
       transform="rotate(-34.661834)"
       style="fill:#cccccc;stroke-width:3.5" />
    <rect
       id="use454"
       width="28"
       height="28"
       x="324.37558"
       y="561.64319"
       transform="rotate(-27.521834)"
       style="fill:#cccccc;stroke-width:3.5" />
    <rect
       id="use458-3"
       width="28"
       height="28"
       x="231.26993"
       y="579.5658"
       transform="rotate(-31.311834)"
       style="fill:#cccccc;stroke-width:3.5" />
    <rect
       id="use460-6"
       width="28"
       height="28"
       x="160.49956"
       y="586.39764"
       transform="rotate(-33.211834)"
       style="fill:#cccccc;stroke-width:3.5" />
    <rect
       id="use262-1-9"
       width="28"
       height="28"
       x="330.65329"
       y="661.97412"
       transform="rotate(-26.639733)"
       style="fill:#cccccc;stroke-width:3.5" />
    <rect
       id="use264-5-3"
       width="28"
       height="28"
       x="246.37218"
       y="678.10681"
       transform="rotate(-29.639733)"
       style="fill:#cccccc;stroke-width:3.5" />
    <rect
       id="use266-9-9"
       width="28"
       height="28"
       x="165.83105"
       y="689.63403"
       transform="rotate(-32.639733)"
       style="fill:#cccccc;stroke-width:3.5" />
    <rect
       id="use268-4-0"
       width="28"
       height="28"
       x="82.060509"
       y="697.64539"
       transform="rotate(-35.639733)"
       style="fill:#cccccc;stroke-width:3.5" />
    <rect
       id="use270-9-8"
       width="28"
       height="28"
       x="-5.9179573"
       y="703.35834"
       transform="rotate(-38.639733)"
       style="fill:#cccccc;stroke-width:3.5" />
    <rect
       id="use272-0-8"
       width="28"
       height="28"
       x="-91.416748"
       y="703.68274"
       transform="rotate(-41.639733)"
       style="fill:#cccccc;stroke-width:3.5" />
    <rect
       id="use208-72-5"
       width="28"
       height="28"
       x="-1410.9163"
       y="-144.95464"
       transform="matrix(-0.88128833,-0.47257897,-0.47257897,0.88128833,0,0)"
       style="fill:#cccccc;stroke-width:3.5" />
    <rect
       id="use210-7-0"
       width="28"
       height="28"
       x="-1442.6498"
       y="-217.2173"
       transform="matrix(-0.85597996,-0.517009,-0.517009,0.85597996,0,0)"
       style="fill:#cccccc;stroke-width:3.5" />
    <rect
       id="use212-22-9"
       width="28"
       height="28"
       x="-1470.6479"
       y="-291.00781"
       transform="matrix(-0.82843361,-0.56008728,-0.56008728,0.82843361,0,0)"
       style="fill:#cccccc;stroke-width:3.5" />
    <rect
       id="use214-6-6"
       width="28"
       height="28"
       x="-1494.9142"
       y="-366.39133"
       transform="matrix(-0.79861625,-0.60184059,-0.60184059,0.79861625,0,0)"
       style="fill:#cccccc;stroke-width:3.5" />
    <rect
       id="use216-1-3"
       width="28"
       height="28"
       x="-1515.2191"
       y="-442.65848"
       transform="matrix(-0.76680864,-0.64187578,-0.64187578,0.76680864,0,0)"
       style="fill:#cccccc;stroke-width:3.5" />
    <rect
       id="use218-0-8"
       width="28"
       height="28"
       x="-1531.5995"
       y="-519.86383"
       transform="matrix(-0.73299618,-0.68023275,-0.68023275,0.73299618,0,0)"
       style="fill:#cccccc;stroke-width:3.5" />
    <rect
       id="use220-6-5"
       width="28"
       height="28"
       x="-1544.047"
       y="-598.07208"
       transform="matrix(-0.69714215,-0.71693292,-0.71693292,0.69714215,0,0)"
       style="fill:#cccccc;stroke-width:3.5" />
    <rect
       id="use262-1-6"
       width="28"
       height="28"
       x="-1408.6156"
       y="-192.58238"
       transform="matrix(-0.88293256,-0.46949983,-0.46949983,0.88293256,0,0)"
       style="fill:#cccccc;stroke-width:3.5" />
    <rect
       id="use264-5-1"
       width="28"
       height="28"
       x="-1441.3203"
       y="-266.47736"
       transform="matrix(-0.85715081,-0.51506551,-0.51506551,0.85715081,0,0)"
       style="fill:#cccccc;stroke-width:3.5" />
    <rect
       id="use266-9-1"
       width="28"
       height="28"
       x="-1470.1124"
       y="-341.98267"
       transform="matrix(-0.82901967,-0.55921944,-0.55921944,0.82901967,0,0)"
       style="fill:#cccccc;stroke-width:3.5" />
    <rect
       id="use268-4-5"
       width="28"
       height="28"
       x="-1494.9142"
       y="-418.89133"
       transform="matrix(-0.79861625,-0.60184059,-0.60184059,0.79861625,0,0)"
       style="fill:#cccccc;stroke-width:3.5" />
    <rect
       id="use270-9-9"
       width="28"
       height="28"
       x="-1515.6566"
       y="-496.9928"
       transform="matrix(-0.76602387,-0.64281213,-0.64281213,0.76602387,0,0)"
       style="fill:#cccccc;stroke-width:3.5" />
    <rect
       id="use272-0-84"
       width="28"
       height="28"
       x="-1532.2832"
       y="-576.07275"
       transform="matrix(-0.73133187,-0.68202177,-0.68202177,0.73133187,0,0)"
       style="fill:#cccccc;stroke-width:3.5" />
    <rect
       id="use384-8"
       width="28"
       height="28"
       x="-1404.666"
       y="-289.31836"
       transform="matrix(-0.88570307,-0.46425216,-0.46425216,0.88570307,0,0)"
       style="fill:#cccccc;stroke-width:3.5" />
    <rect
       id="use386-1"
       width="28"
       height="28"
       x="-1443.4221"
       y="-348.0405"
       transform="matrix(-0.8660094,-0.50002772,-0.50002772,0.8660094,0,0)"
       style="fill:#cccccc;stroke-width:3.5" />
    <rect
       id="use388-0"
       width="28"
       height="28"
       x="-1476.9327"
       y="-404.9527"
       transform="matrix(-0.84496481,-0.5348219,-0.5348219,0.84496481,0,0)"
       style="fill:#cccccc;stroke-width:3.5" />
    <rect
       id="use390-3"
       width="28"
       height="28"
       x="-1508.1625"
       y="-463.58221"
       transform="matrix(-0.82252307,-0.56873175,-0.56873175,0.82252307,0,0)"
       style="fill:#cccccc;stroke-width:3.5" />
    <rect
       id="use454-0"
       width="28"
       height="28"
       x="-1403.0259"
       y="-338.42206"
       transform="matrix(-0.88683481,-0.4620866,-0.4620866,0.88683481,0,0)"
       style="fill:#cccccc;stroke-width:3.5" />
    <rect
       id="use458-3-4"
       width="28"
       height="28"
       x="-1432.8596"
       y="-432.71185"
       transform="matrix(-0.85435151,-0.51969558,-0.51969558,0.85435151,0,0)"
       style="fill:#cccccc;stroke-width:3.5" />
    <rect
       id="use460-6-4"
       width="28"
       height="28"
       x="-1469.153"
       y="-480.49805"
       transform="matrix(-0.8366512,-0.54773604,-0.54773604,0.8366512,0,0)"
       style="fill:#cccccc;stroke-width:3.5" />
    <rect
       id="use262-1-9-4"
       width="28"
       height="28"
       x="-1410.4003"
       y="-211.39131"
       transform="matrix(-0.89384351,-0.44837905,-0.44837905,0.89384351,0,0)"
       style="fill:#cccccc;stroke-width:3.5" />
    <rect
       id="use264-5-3-4"
       width="28"
       height="28"
       x="-1446.5868"
       y="-285.18121"
       transform="matrix(-0.86915219,-0.49454472,-0.49454472,0.86915219,0,0)"
       style="fill:#cccccc;stroke-width:3.5" />
    <rect
       id="use266-9-9-7"
       width="28"
       height="28"
       x="-1474.3929"
       y="-360.93658"
       transform="matrix(-0.84207857,-0.53935487,-0.53935487,0.84207857,0,0)"
       style="fill:#cccccc;stroke-width:3.5" />
    <rect
       id="use268-4-0-6"
       width="28"
       height="28"
       x="-1500.9333"
       y="-437.328"
       transform="matrix(-0.81269688,-0.58268669,-0.58268669,0.81269688,0,0)"
       style="fill:#cccccc;stroke-width:3.5" />
    <rect
       id="use270-9-8-3"
       width="28"
       height="28"
       x="-1527.3425"
       y="-512.90698"
       transform="matrix(-0.78108764,-0.62442141,-0.62442141,0.78108764,0,0)"
       style="fill:#cccccc;stroke-width:3.5" />
    <rect
       id="use272-0-8-1"
       width="28"
       height="28"
       x="-1547.1011"
       y="-590.54114"
       transform="matrix(-0.7473375,-0.66444463,-0.66444463,0.7473375,0,0)"
       style="fill:#cccccc;stroke-width:3.5" />
    <text
       xml:space="preserve"
       id="text5982"
       style="font-size:26.6667px;line-height:1.25;font-family:'London Bridge';-inkscape-font-specification:'London Bridge';white-space:pre;shape-inside:url(#rect5984)"
       transform="translate(400.7892,9.3330388)"><tspan
         x="493.30469"
         y="61.996124"
         id="tspan368"><tspan
           style="font-family:sans-serif;-inkscape-font-specification:sans-serif"
           id="tspan366">KONFERANS</tspan></tspan></text>
  </g>
</svg>
